<?xml version="1.0" encoding="utf-8"?><!-- Generator: Adobe Illustrator 17.1.0, SVG Export Plug-In . SVG Version: 6.00 Build 0)  --><!DOCTYPE svg PUBLIC "-//W3C//DTD SVG 1.0//EN" "http://www.w3.org/TR/2001/REC-SVG-20010904/DTD/svg10.dtd"><svg xmlns="http://www.w3.org/2000/svg" xmlns:xlink="http://www.w3.org/1999/xlink" version="1.0" viewBox="0 0 128 128" preserveAspectRatio="none"><style> svg * { background-size: cover; background-repeat: no-repeat; } @media all and (max-width: 32px) { #group_1 { opacity: 1; } #group_2, #group_3 { opacity: 0; } } @media all and (min-width: 33px) and (max-width: 127px) { #group_2 { opacity: 1; } #group_1, #group_3 { opacity: 0; } } @media all and (min-width: 128px) { #group_3 { opacity: 1; } #group_1, #group_2 { opacity: 0; } } </style><g id="group_3"><path d="M128,109c0,10.5-8.5,19-19,19s-19-8.5-19-19c0-0.2,0-0.4,0-0.5L30.8,78.9C27.6,81.4,23.5,83,19,83C8.5,83,0,74.5,0,64s8.5-19,19-19c4.5,0,8.6,1.6,11.8,4.1L90,19.5c0-0.2,0-0.4,0-0.5c0-10.5,8.5-19,19-19s19,8.5,19,19s-8.5,19-19,19c-4.5,0-8.6-1.6-11.8-4.1L38,63.5c0,0.2,0,0.4,0,0.5s0,0.4,0,0.5l59.2,29.6c3.2-2.6,7.4-4.1,11.8-4.1C119.5,90,128,98.5,128,109z"></path></g><g transform="scale(8)" id="group_1"><path d="M16,13c0,1.7-1.3,3-3,3s-3-1.3-3-3c0-0.1,0-0.2,0-0.4l-5-2.5C4.5,10.7,3.8,11,3,11c-1.7,0-3-1.3-3-3s1.3-3,3-3c0.8,0,1.5,0.3,2.1,0.8l5-2.5c0-0.1,0-0.2,0-0.4c0-1.7,1.3-3,3-3s3,1.3,3,3s-1.3,3-3,3c-0.8,0-1.5-0.3-2.1-0.8L6,7.6C6,7.8,6,7.9,6,8s0,0.2,0,0.4l5,2.5c0.5-0.5,1.3-0.8,2.1-0.8C14.7,10,16,11.3,16,13z"></path></g><g transform="scale(4)" id="group_2"><path d="M32,27c0,2.8-2.2,5-5,5s-5-2.2-5-5c0-0.1,0-0.2,0-0.3L8.2,19.8C7.3,20.5,6.2,21,5,21c-2.8,0-5-2.2-5-5s2.2-5,5-5c1.2,0,2.3,0.5,3.2,1.2L22,5.3c0-0.1,0-0.2,0-0.3c0-2.8,2.2-5,5-5s5,2.2,5,5s-2.2,5-5,5c-1.2,0-2.3-0.5-3.2-1.2L10,15.7c0,0.1,0,0.2,0,0.3s0,0.2,0,0.3l13.8,6.9c0.9-0.7,2-1.2,3.2-1.2C29.8,22,32,24.2,32,27z"></path></g></svg>