<?xml version="1.0" encoding="utf-8"?><!-- Generator: Adobe Illustrator 17.1.0, SVG Export Plug-In . SVG Version: 6.00 Build 0)  --><!DOCTYPE svg PUBLIC "-//W3C//DTD SVG 1.0//EN" "http://www.w3.org/TR/2001/REC-SVG-20010904/DTD/svg10.dtd"><svg xmlns="http://www.w3.org/2000/svg" xmlns:xlink="http://www.w3.org/1999/xlink" version="1.0" viewBox="0 0 128 128" preserveAspectRatio="none"><style> svg * { background-size: cover; background-repeat: no-repeat; } @media all and (max-width: 32px) { #group_1 { opacity: 1; } #group_2, #group_3 { opacity: 0; } } @media all and (min-width: 33px) and (max-width: 127px) { #group_2 { opacity: 1; } #group_1, #group_3 { opacity: 0; } } @media all and (min-width: 128px) { #group_3 { opacity: 1; } #group_1, #group_2 { opacity: 0; } } </style><g id="group_3"><path d="M128,16v6H31v-6H128z M22,11.8C21.9,10.3,20.6,9,19,9H3c-1.7,0-3,1.3-3,3v16c0,1.7,1.3,3,3,3h16c1.7,0,3-1.3,3-3V16.8L20,19v9c0,0.6-0.4,1-1,1H3c-0.6,0-1-0.4-1-1V12c0-0.6,0.4-1,1-1h16c0.6,0,1,0.4,1,1v1.6l-9,8.2l-4.2-4.2l-2.1,2.1l5.2,5.2L11,26l1-1.1l13.2-14.6l-0.7-0.7L22,11.8z M31,67h97v-6H31V67z M11,66.8l-4.2-4.2l-2.1,2.1l5.2,5.2L11,71l1-1.1l13.2-14.6l-0.7-0.7L22,56.8c-0.1-1.6-1.4-2.8-3-2.8H3c-1.7,0-3,1.3-3,3v16c0,1.7,1.3,3,3,3h16c1.7,0,3-1.3,3-3V61.8L20,64v9c0,0.6-0.4,1-1,1H3c-0.6,0-1-0.4-1-1V57c0-0.6,0.4-1,1-1h16c0.6,0,1,0.4,1,1v1.6L11,66.8z M31,111h97v-6H31V111z M22,101v16c0,1.7-1.3,3-3,3H3c-1.7,0-3-1.3-3-3v-16c0-1.7,1.3-3,3-3h16C20.7,98,22,99.3,22,101z M20,101c0-0.6-0.4-1-1-1H3c-0.6,0-1,0.4-1,1v16c0,0.6,0.4,1,1,1h16c0.6,0,1-0.4,1-1V101z"></path></g><g transform="scale(8)" id="group_1"><path d="M5,7h11v2H5V7z M5,14h11v-2H5V14z M5,2v2h11V2H5z M0,5h4V1H0V5z M0,10h4V6H0V10z M0,11h4v4H0V11z M1,14h2v-2H1V14z"></path></g><g transform="scale(4)" id="group_2"><path d="M10,15h22v2H10V15z M10,27h22v-2H10V27z M10,5v2h22V5H10z M8,3v6c0,0.6-0.4,1-1,1H1c-0.6,0-1-0.4-1-1V3c0-0.6,0.4-1,1-1h6C7.6,2,8,2.4,8,3z M6,4H2v4h4V4z M5,5H3v2h2V5z M8,13v6c0,0.6-0.4,1-1,1H1c-0.6,0-1-0.4-1-1v-6c0-0.6,0.4-1,1-1h6C7.6,12,8,12.4,8,13z M6,14H2v4h4V14z M5,15H3v2h2V15z M8,23v6c0,0.6-0.4,1-1,1H1c-0.6,0-1-0.4-1-1v-6c0-0.6,0.4-1,1-1h6C7.6,22,8,22.4,8,23z M6,24H2v4h4V24z"></path></g></svg>